G04 #@! TF.GenerationSoftware,KiCad,Pcbnew,5.1.2*
G04 #@! TF.CreationDate,2019-05-09T21:38:36-07:00*
G04 #@! TF.ProjectId,spacetime,73706163-6574-4696-9d65-2e6b69636164,v0.1*
G04 #@! TF.SameCoordinates,Original*
G04 #@! TF.FileFunction,Legend,Bot*
G04 #@! TF.FilePolarity,Positive*
%FSLAX46Y46*%
G04 Gerber Fmt 4.6, Leading zero omitted, Abs format (unit mm)*
G04 Created by KiCad (PCBNEW 5.1.2) date 2019-05-09 21:38:36*
%MOMM*%
%LPD*%
G04 APERTURE LIST*
%ADD10C,0.150000*%
%ADD11C,0.254000*%
%ADD12C,0.120000*%
%ADD13C,0.127000*%
G04 APERTURE END LIST*
D10*
X208690476Y-79985714D02*
X208690476Y-80795238D01*
X208738095Y-80890476D01*
X208785714Y-80938095D01*
X208880952Y-80985714D01*
X209023809Y-80985714D01*
X209119047Y-80938095D01*
X208690476Y-80604761D02*
X208785714Y-80652380D01*
X208976190Y-80652380D01*
X209071428Y-80604761D01*
X209119047Y-80557142D01*
X209166666Y-80461904D01*
X209166666Y-80176190D01*
X209119047Y-80080952D01*
X209071428Y-80033333D01*
X208976190Y-79985714D01*
X208785714Y-79985714D01*
X208690476Y-80033333D01*
X208214285Y-79985714D02*
X208214285Y-80652380D01*
X208214285Y-80080952D02*
X208166666Y-80033333D01*
X208071428Y-79985714D01*
X207928571Y-79985714D01*
X207833333Y-80033333D01*
X207785714Y-80128571D01*
X207785714Y-80652380D01*
X206880952Y-80652380D02*
X206880952Y-79652380D01*
X206880952Y-80604761D02*
X206976190Y-80652380D01*
X207166666Y-80652380D01*
X207261904Y-80604761D01*
X207309523Y-80557142D01*
X207357142Y-80461904D01*
X207357142Y-80176190D01*
X207309523Y-80080952D01*
X207261904Y-80033333D01*
X207166666Y-79985714D01*
X206976190Y-79985714D01*
X206880952Y-80033333D01*
X208361904Y-77652380D02*
X208361904Y-76985714D01*
X208361904Y-77176190D02*
X208314285Y-77080952D01*
X208266666Y-77033333D01*
X208171428Y-76985714D01*
X208076190Y-76985714D01*
X207790476Y-77604761D02*
X207695238Y-77652380D01*
X207504761Y-77652380D01*
X207409523Y-77604761D01*
X207361904Y-77509523D01*
X207361904Y-77461904D01*
X207409523Y-77366666D01*
X207504761Y-77319047D01*
X207647619Y-77319047D01*
X207742857Y-77271428D01*
X207790476Y-77176190D01*
X207790476Y-77128571D01*
X207742857Y-77033333D01*
X207647619Y-76985714D01*
X207504761Y-76985714D01*
X207409523Y-77033333D01*
X207076190Y-76985714D02*
X206695238Y-76985714D01*
X206933333Y-76652380D02*
X206933333Y-77509523D01*
X206885714Y-77604761D01*
X206790476Y-77652380D01*
X206695238Y-77652380D01*
X216204761Y-43302380D02*
X216204761Y-42302380D01*
X215823809Y-42302380D01*
X215728571Y-42350000D01*
X215680952Y-42397619D01*
X215633333Y-42492857D01*
X215633333Y-42635714D01*
X215680952Y-42730952D01*
X215728571Y-42778571D01*
X215823809Y-42826190D01*
X216204761Y-42826190D01*
X215204761Y-43302380D02*
X215204761Y-42635714D01*
X215204761Y-42826190D02*
X215157142Y-42730952D01*
X215109523Y-42683333D01*
X215014285Y-42635714D01*
X214919047Y-42635714D01*
X214442857Y-43302380D02*
X214538095Y-43254761D01*
X214585714Y-43207142D01*
X214633333Y-43111904D01*
X214633333Y-42826190D01*
X214585714Y-42730952D01*
X214538095Y-42683333D01*
X214442857Y-42635714D01*
X214300000Y-42635714D01*
X214204761Y-42683333D01*
X214157142Y-42730952D01*
X214109523Y-42826190D01*
X214109523Y-43111904D01*
X214157142Y-43207142D01*
X214204761Y-43254761D01*
X214300000Y-43302380D01*
X214442857Y-43302380D01*
X212919047Y-43302380D02*
X212919047Y-42302380D01*
X212585714Y-43016666D01*
X212252380Y-42302380D01*
X212252380Y-43302380D01*
X211776190Y-43302380D02*
X211776190Y-42635714D01*
X211776190Y-42302380D02*
X211823809Y-42350000D01*
X211776190Y-42397619D01*
X211728571Y-42350000D01*
X211776190Y-42302380D01*
X211776190Y-42397619D01*
X210871428Y-43254761D02*
X210966666Y-43302380D01*
X211157142Y-43302380D01*
X211252380Y-43254761D01*
X211300000Y-43207142D01*
X211347619Y-43111904D01*
X211347619Y-42826190D01*
X211300000Y-42730952D01*
X211252380Y-42683333D01*
X211157142Y-42635714D01*
X210966666Y-42635714D01*
X210871428Y-42683333D01*
X210442857Y-43302380D02*
X210442857Y-42635714D01*
X210442857Y-42826190D02*
X210395238Y-42730952D01*
X210347619Y-42683333D01*
X210252380Y-42635714D01*
X210157142Y-42635714D01*
X209680952Y-43302380D02*
X209776190Y-43254761D01*
X209823809Y-43207142D01*
X209871428Y-43111904D01*
X209871428Y-42826190D01*
X209823809Y-42730952D01*
X209776190Y-42683333D01*
X209680952Y-42635714D01*
X209538095Y-42635714D01*
X209442857Y-42683333D01*
X209395238Y-42730952D01*
X209347619Y-42826190D01*
X209347619Y-43111904D01*
X209395238Y-43207142D01*
X209442857Y-43254761D01*
X209538095Y-43302380D01*
X209680952Y-43302380D01*
X215538095Y-44428571D02*
X215395238Y-44476190D01*
X215347619Y-44523809D01*
X215300000Y-44619047D01*
X215300000Y-44761904D01*
X215347619Y-44857142D01*
X215395238Y-44904761D01*
X215490476Y-44952380D01*
X215871428Y-44952380D01*
X215871428Y-43952380D01*
X215538095Y-43952380D01*
X215442857Y-44000000D01*
X215395238Y-44047619D01*
X215347619Y-44142857D01*
X215347619Y-44238095D01*
X215395238Y-44333333D01*
X215442857Y-44380952D01*
X215538095Y-44428571D01*
X215871428Y-44428571D01*
X214442857Y-44952380D02*
X214442857Y-44428571D01*
X214490476Y-44333333D01*
X214585714Y-44285714D01*
X214776190Y-44285714D01*
X214871428Y-44333333D01*
X214442857Y-44904761D02*
X214538095Y-44952380D01*
X214776190Y-44952380D01*
X214871428Y-44904761D01*
X214919047Y-44809523D01*
X214919047Y-44714285D01*
X214871428Y-44619047D01*
X214776190Y-44571428D01*
X214538095Y-44571428D01*
X214442857Y-44523809D01*
X213538095Y-44904761D02*
X213633333Y-44952380D01*
X213823809Y-44952380D01*
X213919047Y-44904761D01*
X213966666Y-44857142D01*
X214014285Y-44761904D01*
X214014285Y-44476190D01*
X213966666Y-44380952D01*
X213919047Y-44333333D01*
X213823809Y-44285714D01*
X213633333Y-44285714D01*
X213538095Y-44333333D01*
X213109523Y-44952380D02*
X213109523Y-43952380D01*
X213014285Y-44571428D02*
X212728571Y-44952380D01*
X212728571Y-44285714D02*
X213109523Y-44666666D01*
X212347619Y-44904761D02*
X212252380Y-44952380D01*
X212061904Y-44952380D01*
X211966666Y-44904761D01*
X211919047Y-44809523D01*
X211919047Y-44761904D01*
X211966666Y-44666666D01*
X212061904Y-44619047D01*
X212204761Y-44619047D01*
X212300000Y-44571428D01*
X212347619Y-44476190D01*
X212347619Y-44428571D01*
X212300000Y-44333333D01*
X212204761Y-44285714D01*
X212061904Y-44285714D01*
X211966666Y-44333333D01*
X211490476Y-44952380D02*
X211490476Y-44285714D01*
X211490476Y-43952380D02*
X211538095Y-44000000D01*
X211490476Y-44047619D01*
X211442857Y-44000000D01*
X211490476Y-43952380D01*
X211490476Y-44047619D01*
X210585714Y-44952380D02*
X210585714Y-43952380D01*
X210585714Y-44904761D02*
X210680952Y-44952380D01*
X210871428Y-44952380D01*
X210966666Y-44904761D01*
X211014285Y-44857142D01*
X211061904Y-44761904D01*
X211061904Y-44476190D01*
X211014285Y-44380952D01*
X210966666Y-44333333D01*
X210871428Y-44285714D01*
X210680952Y-44285714D01*
X210585714Y-44333333D01*
X209728571Y-44904761D02*
X209823809Y-44952380D01*
X210014285Y-44952380D01*
X210109523Y-44904761D01*
X210157142Y-44809523D01*
X210157142Y-44428571D01*
X210109523Y-44333333D01*
X210014285Y-44285714D01*
X209823809Y-44285714D01*
X209728571Y-44333333D01*
X209680952Y-44428571D01*
X209680952Y-44523809D01*
X210157142Y-44619047D01*
X214776190Y-45602380D02*
X214776190Y-46411904D01*
X214728571Y-46507142D01*
X214680952Y-46554761D01*
X214585714Y-46602380D01*
X214395238Y-46602380D01*
X214300000Y-46554761D01*
X214252380Y-46507142D01*
X214204761Y-46411904D01*
X214204761Y-45602380D01*
X213728571Y-45935714D02*
X213728571Y-46935714D01*
X213728571Y-45983333D02*
X213633333Y-45935714D01*
X213442857Y-45935714D01*
X213347619Y-45983333D01*
X213300000Y-46030952D01*
X213252380Y-46126190D01*
X213252380Y-46411904D01*
X213300000Y-46507142D01*
X213347619Y-46554761D01*
X213442857Y-46602380D01*
X213633333Y-46602380D01*
X213728571Y-46554761D01*
X212061904Y-46507142D02*
X212014285Y-46554761D01*
X212061904Y-46602380D01*
X212109523Y-46554761D01*
X212061904Y-46507142D01*
X212061904Y-46602380D01*
X212061904Y-45983333D02*
X212014285Y-46030952D01*
X212061904Y-46078571D01*
X212109523Y-46030952D01*
X212061904Y-45983333D01*
X212061904Y-46078571D01*
X211728571Y-45697619D02*
X211538095Y-45554761D01*
X211347619Y-45697619D01*
X211109523Y-46983333D02*
X211061904Y-46935714D01*
X210966666Y-46792857D01*
X210919047Y-46697619D01*
X210871428Y-46554761D01*
X210823809Y-46316666D01*
X210823809Y-46126190D01*
X210871428Y-45888095D01*
X210919047Y-45745238D01*
X210966666Y-45650000D01*
X211061904Y-45507142D01*
X211109523Y-45459523D01*
D11*
X220502160Y-66700540D02*
X218602240Y-66700540D01*
X217002040Y-66700540D02*
X215602500Y-66700540D01*
X214002300Y-66700540D02*
X211602000Y-66700540D01*
X221000000Y-73299460D02*
X220502160Y-73299460D01*
X221000000Y-72799080D02*
X221000000Y-73299460D01*
X221000000Y-67200920D02*
X221000000Y-72799080D01*
X221000000Y-66700540D02*
X221000000Y-67200920D01*
X220502160Y-66700540D02*
X221000000Y-66700540D01*
X208800380Y-66700540D02*
X210001800Y-66700540D01*
X208800380Y-66700540D02*
X208800380Y-73299460D01*
X220502160Y-73299460D02*
X210502180Y-73299460D01*
D12*
X216810000Y-78200000D02*
X216810000Y-80600000D01*
X216810000Y-76190000D02*
X216810000Y-76600000D01*
X210390000Y-76190000D02*
X216810000Y-76190000D01*
X210390000Y-76600000D02*
X210390000Y-76190000D01*
X210390000Y-80600000D02*
X210390000Y-78200000D01*
X210390000Y-82610000D02*
X210390000Y-82330000D01*
X216810000Y-82610000D02*
X210390000Y-82610000D01*
X216810000Y-82200000D02*
X216810000Y-82610000D01*
D10*
X206180000Y-30790000D02*
X203640000Y-30790000D01*
X221420000Y-30790000D02*
X218880000Y-30790000D01*
X218880000Y-30790000D02*
X218880000Y-61270000D01*
X203640000Y-30790000D02*
X203640000Y-61270000D01*
X206180000Y-61270000D02*
X203640000Y-61270000D01*
X206180000Y-61270000D02*
X206180000Y-30790000D01*
X221420000Y-61270000D02*
X218880000Y-61270000D01*
X221420000Y-30790000D02*
X221420000Y-61270000D01*
D13*
X213874057Y-73666171D02*
X213525714Y-73666171D01*
X213699885Y-74275771D02*
X213699885Y-73666171D01*
X212974171Y-74275771D02*
X213177371Y-73985485D01*
X213322514Y-74275771D02*
X213322514Y-73666171D01*
X213090285Y-73666171D01*
X213032228Y-73695200D01*
X213003200Y-73724228D01*
X212974171Y-73782285D01*
X212974171Y-73869371D01*
X213003200Y-73927428D01*
X213032228Y-73956457D01*
X213090285Y-73985485D01*
X213322514Y-73985485D01*
X212364571Y-74275771D02*
X212567771Y-73985485D01*
X212712914Y-74275771D02*
X212712914Y-73666171D01*
X212480685Y-73666171D01*
X212422628Y-73695200D01*
X212393600Y-73724228D01*
X212364571Y-73782285D01*
X212364571Y-73869371D01*
X212393600Y-73927428D01*
X212422628Y-73956457D01*
X212480685Y-73985485D01*
X212712914Y-73985485D01*
X212132342Y-74246742D02*
X212045257Y-74275771D01*
X211900114Y-74275771D01*
X211842057Y-74246742D01*
X211813028Y-74217714D01*
X211784000Y-74159657D01*
X211784000Y-74101600D01*
X211813028Y-74043542D01*
X211842057Y-74014514D01*
X211900114Y-73985485D01*
X212016228Y-73956457D01*
X212074285Y-73927428D01*
X212103314Y-73898400D01*
X212132342Y-73840342D01*
X212132342Y-73782285D01*
X212103314Y-73724228D01*
X212074285Y-73695200D01*
X212016228Y-73666171D01*
X211871085Y-73666171D01*
X211784000Y-73695200D01*
D10*
X213619047Y-83852380D02*
X213619047Y-83185714D01*
X213619047Y-83376190D02*
X213571428Y-83280952D01*
X213523809Y-83233333D01*
X213428571Y-83185714D01*
X213333333Y-83185714D01*
X212619047Y-83804761D02*
X212714285Y-83852380D01*
X212904761Y-83852380D01*
X213000000Y-83804761D01*
X213047619Y-83709523D01*
X213047619Y-83328571D01*
X213000000Y-83233333D01*
X212904761Y-83185714D01*
X212714285Y-83185714D01*
X212619047Y-83233333D01*
X212571428Y-83328571D01*
X212571428Y-83423809D01*
X213047619Y-83519047D01*
X212190476Y-83804761D02*
X212095238Y-83852380D01*
X211904761Y-83852380D01*
X211809523Y-83804761D01*
X211761904Y-83709523D01*
X211761904Y-83661904D01*
X211809523Y-83566666D01*
X211904761Y-83519047D01*
X212047619Y-83519047D01*
X212142857Y-83471428D01*
X212190476Y-83376190D01*
X212190476Y-83328571D01*
X212142857Y-83233333D01*
X212047619Y-83185714D01*
X211904761Y-83185714D01*
X211809523Y-83233333D01*
X210952380Y-83804761D02*
X211047619Y-83852380D01*
X211238095Y-83852380D01*
X211333333Y-83804761D01*
X211380952Y-83709523D01*
X211380952Y-83328571D01*
X211333333Y-83233333D01*
X211238095Y-83185714D01*
X211047619Y-83185714D01*
X210952380Y-83233333D01*
X210904761Y-83328571D01*
X210904761Y-83423809D01*
X211380952Y-83519047D01*
X210619047Y-83185714D02*
X210238095Y-83185714D01*
X210476190Y-82852380D02*
X210476190Y-83709523D01*
X210428571Y-83804761D01*
X210333333Y-83852380D01*
X210238095Y-83852380D01*
M02*
