M48
; DRILL file {KiCad 5.1.2} date Thu 09 May 2019 09:38:43 PM PDT
; FORMAT={-:-/ absolute / inch / decimal}
; #@! TF.CreationDate,2019-05-09T21:38:43-07:00
; #@! TF.GenerationSoftware,Kicad,Pcbnew,5.1.2
; #@! TF.FileFunction,Plated,1,2,PTH
FMAT,2
INCH
T1C0.0157
T2C0.0276
T3C0.0400
T4C0.0433
T5C0.0590
T6C0.0866
%
G90
G05
T1
X8.2677Y-2.7953
X8.2863Y-2.6999
X8.4055Y-3.0315
X8.4843Y-2.7559
T2
X7.2441Y-2.8386
X7.2441Y-3.1457
X7.2441Y-2.0906
X7.2441Y-2.3976
X3.3858Y-1.3425
X3.3858Y-1.6496
X6.378Y-2.8386
X6.378Y-3.1457
X4.1339Y-1.3425
X4.1339Y-1.6496
X6.6328Y-4.2112
X6.7864Y-3.9452
X6.378Y-1.3425
X6.378Y-1.6496
X7.126Y-1.3425
X7.126Y-1.6496
X5.6299Y-1.3425
X5.6299Y-1.6496
X3.3858Y-2.8268
X3.3858Y-3.1339
X3.3858Y-2.0906
X3.3858Y-2.3976
X4.8819Y-1.3425
X4.8819Y-1.6496
X7.9304Y-4.9558
X8.084Y-4.6899
X7.2826Y-4.5818
X7.4361Y-4.3158
X3.7795Y-3.5866
X3.7795Y-3.8937
X5.6299Y-2.8386
X5.6299Y-3.1457
X6.378Y-2.0906
X6.378Y-2.3976
X4.8819Y-2.0906
X4.8819Y-2.3976
X4.1339Y-2.0906
X4.1339Y-2.3976
X4.1339Y-2.8386
X4.1339Y-3.1457
X7.2441Y-1.3425
X7.2441Y-1.6496
X7.126Y-2.8386
X7.126Y-3.1457
X4.8819Y-2.8386
X4.8819Y-3.1457
X5.6299Y-2.0906
X5.6299Y-2.3976
X7.126Y-2.0906
X7.126Y-2.3976
T3
X8.4252Y-1.2764
X8.4252Y-1.3764
X8.4252Y-1.4764
X8.0709Y-2.7559
X8.0709Y-2.9528
X8.1299Y-2.4803
X8.2299Y-2.4803
X8.3268Y-2.4803
X8.4268Y-2.4803
X8.0709Y-3.0654
X8.0709Y-3.1654
T4
X7.9673Y-1.2622
X7.9673Y-1.3622
X7.9673Y-1.4622
X7.9673Y-1.5622
X7.9673Y-1.6622
X7.9673Y-1.7622
X7.9673Y-1.8622
X7.9673Y-1.9622
X7.9673Y-2.0622
X7.9673Y-2.1622
X7.9673Y-2.2622
X7.9673Y-2.3622
X8.0673Y-1.2622
X8.0673Y-1.3622
X8.0673Y-1.4622
X8.0673Y-1.5622
X8.0673Y-1.6622
X8.0673Y-1.7622
X8.0673Y-1.8622
X8.0673Y-1.9622
X8.0673Y-2.0622
X8.0673Y-2.1622
X8.0673Y-2.2622
X8.0673Y-2.3622
X8.5673Y-1.2622
X8.5673Y-1.3622
X8.5673Y-1.4622
X8.5673Y-1.5622
X8.5673Y-1.6622
X8.5673Y-1.7622
X8.5673Y-1.8622
X8.5673Y-1.9622
X8.5673Y-2.0622
X8.5673Y-2.1622
X8.5673Y-2.2622
X8.5673Y-2.3622
X8.6673Y-1.2622
X8.6673Y-1.3622
X8.6673Y-1.4622
X8.6673Y-1.5622
X8.6673Y-1.6622
X8.6673Y-1.7622
X8.6673Y-1.8622
X8.6673Y-1.9622
X8.6673Y-2.0622
X8.6673Y-2.1622
X8.6673Y-2.2622
X8.6673Y-2.3622
T5
X4.4169Y-3.0921
X4.4669Y-3.1921
X4.6669Y-3.1921
X4.7169Y-3.0921
X5.165Y-1.5961
X5.215Y-1.6961
X5.415Y-1.6961
X5.465Y-1.5961
X2.9209Y-2.3441
X2.9709Y-2.4441
X3.1709Y-2.4441
X3.2209Y-2.3441
X5.165Y-2.3441
X5.215Y-2.4441
X5.415Y-2.4441
X5.465Y-2.3441
X3.6689Y-3.0921
X3.7189Y-3.1921
X3.9189Y-3.1921
X3.9689Y-3.0921
X6.8634Y-4.2779
X6.8634Y-4.2779
X6.925Y-4.3712
X6.925Y-4.3712
X6.9634Y-4.1047
X6.9634Y-4.1047
X7.075Y-4.1114
X2.9209Y-3.0921
X2.9709Y-3.1921
X3.1709Y-3.1921
X3.2209Y-3.0921
X5.913Y-1.5961
X5.963Y-1.6961
X6.163Y-1.6961
X6.213Y-1.5961
X4.4169Y-2.3441
X4.4669Y-2.4441
X4.6669Y-2.4441
X4.7169Y-2.3441
X6.2522Y-4.0405
X6.2589Y-3.9289
X6.4254Y-4.1405
X6.5187Y-4.0789
X7.4091Y-2.3441
X7.4591Y-2.4441
X7.6591Y-2.4441
X7.7091Y-2.3441
X3.6689Y-1.5961
X3.7189Y-1.6961
X3.9189Y-1.6961
X3.9689Y-1.5961
X5.913Y-2.3441
X5.963Y-2.4441
X6.163Y-2.4441
X6.213Y-2.3441
X7.4091Y-1.5961
X7.4591Y-1.6961
X7.6591Y-1.6961
X7.7091Y-1.5961
X6.661Y-2.3441
X6.711Y-2.4441
X6.911Y-2.4441
X6.961Y-2.3441
X3.3146Y-3.8402
X3.3646Y-3.9402
X3.5646Y-3.9402
X3.6146Y-3.8402
X2.9209Y-1.5961
X2.9709Y-1.6961
X3.1709Y-1.6961
X3.2209Y-1.5961
X7.4091Y-3.0921
X7.4591Y-3.1921
X7.6591Y-3.1921
X7.7091Y-3.0921
X4.4169Y-1.5961
X4.4669Y-1.6961
X4.6669Y-1.6961
X4.7169Y-1.5961
X6.661Y-1.5961
X6.711Y-1.6961
X6.911Y-1.6961
X6.961Y-1.5961
X6.661Y-3.0921
X6.711Y-3.1921
X6.911Y-3.1921
X6.961Y-3.0921
X3.6689Y-2.3441
X3.7189Y-2.4441
X3.9189Y-2.4441
X3.9689Y-2.3441
X7.5112Y-4.652
X7.5112Y-4.652
X7.5728Y-4.7453
X7.5728Y-4.7453
X7.6112Y-4.4788
X7.6112Y-4.4788
X7.7228Y-4.4855
X5.913Y-3.0921
X5.963Y-3.1921
X6.163Y-3.1921
X6.213Y-3.0921
X5.165Y-3.0921
X5.215Y-3.1921
X5.415Y-3.1921
X5.465Y-3.0921
T6
X5.689Y-1.1614
X7.6575Y-5.4724
X5.9843Y-4.0354
X3.4646Y-4.0748
X5.689Y-3.3268
X7.8937Y-3.622
X6.4173Y-4.7638
X8.4055Y-4.1929
X8.7598Y-1.1614
X8.7598Y-3.3268
X2.7362Y-1.1614
X2.7362Y-3.3268
T0
M30
