M48
; DRILL file {KiCad 5.1.2} date Thu 09 May 2019 09:38:43 PM PDT
; FORMAT={-:-/ absolute / inch / decimal}
; #@! TF.CreationDate,2019-05-09T21:38:43-07:00
; #@! TF.GenerationSoftware,Kicad,Pcbnew,5.1.2
; #@! TF.FileFunction,NonPlated,1,2,NPTH
FMAT,2
INCH
T1C0.0472
T2C0.0709
T3C0.1200
T4C0.1570
%
G90
G05
T1
X8.3623Y-2.7559
X8.6379Y-2.7559
X8.3623Y-2.7559
X8.6379Y-2.7559
T2
X4.3669Y-2.9921
X4.7669Y-2.9921
X5.115Y-1.4961
X5.515Y-1.4961
X2.8709Y-2.2441
X3.2709Y-2.2441
X5.115Y-2.2441
X5.515Y-2.2441
X3.6189Y-2.9921
X4.0189Y-2.9921
X6.9866Y-4.4645
X7.1866Y-4.1181
X2.8709Y-2.9921
X3.2709Y-2.9921
X5.863Y-1.4961
X6.263Y-1.4961
X4.3669Y-2.2441
X4.7669Y-2.2441
X6.2656Y-3.8173
X6.612Y-4.0173
X7.3591Y-2.2441
X7.7591Y-2.2441
X3.6189Y-1.4961
X4.0189Y-1.4961
X5.863Y-2.2441
X6.263Y-2.2441
X7.3591Y-1.4961
X7.7591Y-1.4961
X6.611Y-2.2441
X7.011Y-2.2441
X3.2646Y-3.7402
X3.6646Y-3.7402
X2.8709Y-1.4961
X3.2709Y-1.4961
X7.3591Y-2.9921
X7.7591Y-2.9921
X4.3669Y-1.4961
X4.7669Y-1.4961
X6.611Y-1.4961
X7.011Y-1.4961
X6.611Y-2.9921
X7.011Y-2.9921
X3.6189Y-2.2441
X4.0189Y-2.2441
X7.6344Y-4.8386
X7.8344Y-4.4921
X5.863Y-2.9921
X6.263Y-2.9921
X5.115Y-2.9921
X5.515Y-2.9921
T3
X7.2613Y-4.9349
X7.7313Y-4.1208
X6.6135Y-4.5609
X7.0835Y-3.7468
T4
X5.315Y-2.9921
X4.5669Y-2.9921
X5.315Y-1.4961
X3.0709Y-2.2441
X5.315Y-2.2441
X3.8189Y-2.9921
X7.0866Y-4.2913
X7.1331Y-4.8609
X7.6031Y-4.0468
X3.0709Y-2.9921
X6.063Y-1.4961
X4.5669Y-2.2441
X6.4388Y-3.9173
X7.5591Y-2.2441
X3.8189Y-1.4961
X6.063Y-2.2441
X7.5591Y-1.4961
X6.811Y-2.2441
X3.4646Y-3.7402
X3.0709Y-1.4961
X7.5591Y-2.9921
X4.5669Y-1.4961
X6.811Y-1.4961
X6.811Y-2.9921
X3.8189Y-2.2441
X7.7344Y-4.6654
X7.7809Y-5.2349
X8.2509Y-4.4208
X6.063Y-2.9921
T0
M30
